<svg height="140" viewBox="0 0 786 1009" fill="none" xmlns="http://www.w3.org/2000/svg">
<path d="M65.3511 910.117C60.2511 907.771 54.6921 906.598 48.6741 906.598C43.1661 906.598 39.0351 907.771 36.2811 910.117C33.5271 912.361 32.1501 915.268 32.1501 918.838C32.1501 922.408 33.3231 925.162 35.6691 927.1C38.0151 928.936 42.1461 930.721 48.0621 932.455L52.6521 933.832C58.4661 935.566 62.9031 938.116 65.9631 941.482C69.0231 944.848 70.5531 948.979 70.5531 953.875C70.5531 956.731 69.9921 959.434 68.8701 961.984C67.7481 964.432 66.1161 966.574 63.9741 968.41C61.8321 970.246 59.1291 971.674 55.8651 972.694C52.7031 973.714 49.0311 974.224 44.8491 974.224C40.2591 974.224 36.2301 973.816 32.7621 973C29.2941 972.286 26.2341 971.317 23.5821 970.093L25.7241 963.82C28.3761 965.146 31.1301 966.166 33.9861 966.88C36.8421 967.492 40.2081 967.798 44.0841 967.798C49.8981 967.798 54.3861 966.676 57.5481 964.432C60.7101 962.188 62.2911 958.975 62.2911 954.793C62.2911 951.529 61.1181 948.724 58.7721 946.378C56.5281 943.93 52.4991 941.788 46.6851 939.952L41.7891 938.422C29.8551 934.648 23.8881 928.375 23.8881 919.603C23.8881 916.747 24.4491 914.146 25.5711 911.8C26.7951 909.352 28.4271 907.312 30.4671 905.68C32.6091 903.946 35.1081 902.62 37.9641 901.702C40.9221 900.682 44.1861 900.172 47.7561 900.172C51.0201 900.172 54.3861 900.427 57.8541 900.937C61.3221 901.447 64.4841 902.416 67.3401 903.844L65.3511 910.117ZM137.036 901.09H144.992V973H139.331L138.107 963.973H137.801C135.353 966.625 132.089 969.022 128.009 971.164C123.929 973.204 119.135 974.224 113.627 974.224C106.181 974.224 100.163 972.235 95.5734 968.257C91.0854 964.177 88.8414 957.853 88.8414 949.285V901.09H96.7974V947.602C96.7974 951.58 97.2564 954.895 98.1744 957.547C99.0924 960.097 100.367 962.137 101.999 963.667C103.631 965.197 105.569 966.268 107.813 966.88C110.159 967.492 112.658 967.798 115.31 967.798C119.9 967.798 124.133 966.727 128.009 964.585C131.987 962.443 134.996 959.893 137.036 956.935V901.09ZM229.686 937.045C229.686 942.757 228.819 947.908 227.085 952.498C225.453 957.088 223.209 961.015 220.353 964.279C217.497 967.441 214.131 969.889 210.255 971.623C206.379 973.357 202.299 974.224 198.015 974.224C193.323 974.224 189.294 973.612 185.928 972.388C182.562 971.062 179.349 969.022 176.289 966.268H175.983L175.065 973H168.792V864.37H176.748V910.117C178.89 907.771 181.848 905.527 185.622 903.385C189.498 901.243 193.884 900.172 198.78 900.172C203.064 900.172 207.093 900.937 210.867 902.467C214.641 903.997 217.905 906.292 220.659 909.352C223.515 912.412 225.708 916.288 227.238 920.98C228.87 925.57 229.686 930.925 229.686 937.045ZM221.424 937.198C221.424 927.1 219.231 919.501 214.845 914.401C210.561 909.199 204.951 906.598 198.015 906.598C195.873 906.598 193.731 906.955 191.589 907.669C189.549 908.281 187.611 909.148 185.775 910.27C183.939 911.29 182.256 912.514 180.726 913.942C179.196 915.268 177.87 916.645 176.748 918.073V959.689C178.788 962.035 181.542 963.973 185.01 965.503C188.58 967.033 192.303 967.798 196.179 967.798C199.545 967.798 202.707 967.135 205.665 965.809C208.725 964.483 211.428 962.545 213.774 959.995C216.12 957.343 217.956 954.13 219.282 950.356C220.71 946.48 221.424 942.094 221.424 937.198ZM284.542 910.117C279.442 907.771 273.883 906.598 267.865 906.598C262.357 906.598 258.226 907.771 255.472 910.117C252.718 912.361 251.341 915.268 251.341 918.838C251.341 922.408 252.514 925.162 254.86 927.1C257.206 928.936 261.337 930.721 267.253 932.455L271.843 933.832C277.657 935.566 282.094 938.116 285.154 941.482C288.214 944.848 289.744 948.979 289.744 953.875C289.744 956.731 289.183 959.434 288.061 961.984C286.939 964.432 285.307 966.574 283.165 968.41C281.023 970.246 278.32 971.674 275.056 972.694C271.894 973.714 268.222 974.224 264.04 974.224C259.45 974.224 255.421 973.816 251.953 973C248.485 972.286 245.425 971.317 242.773 970.093L244.915 963.82C247.567 965.146 250.321 966.166 253.177 966.88C256.033 967.492 259.399 967.798 263.275 967.798C269.089 967.798 273.577 966.676 276.739 964.432C279.901 962.188 281.482 958.975 281.482 954.793C281.482 951.529 280.309 948.724 277.963 946.378C275.719 943.93 271.69 941.788 265.876 939.952L260.98 938.422C249.046 934.648 243.079 928.375 243.079 919.603C243.079 916.747 243.64 914.146 244.762 911.8C245.986 909.352 247.618 907.312 249.658 905.68C251.8 903.946 254.299 902.62 257.155 901.702C260.113 900.682 263.377 900.172 266.947 900.172C270.211 900.172 273.577 900.427 277.045 900.937C280.513 901.447 283.675 902.416 286.531 903.844L284.542 910.117ZM338.785 968.41C342.049 968.41 345.007 968.053 347.659 967.339C350.311 966.625 352.81 965.707 355.156 964.585L356.839 970.093C354.085 971.521 351.178 972.541 348.118 973.153C345.16 973.867 341.743 974.224 337.867 974.224C333.073 974.224 328.534 973.459 324.25 971.929C320.068 970.399 316.345 968.104 313.081 965.044C309.919 961.984 307.369 958.159 305.431 953.569C303.595 948.877 302.677 943.42 302.677 937.198C302.677 931.486 303.544 926.335 305.278 921.745C307.012 917.155 309.46 913.279 312.622 910.117C315.784 906.853 319.456 904.405 323.638 902.773C327.922 901.039 332.614 900.172 337.714 900.172C340.876 900.172 343.936 900.427 346.894 900.937C349.852 901.345 353.065 902.365 356.533 903.997L354.697 910.27C351.943 908.842 349.291 907.873 346.741 907.363C344.293 906.853 341.743 906.598 339.091 906.598C334.909 906.598 331.084 907.312 327.616 908.74C324.148 910.168 321.19 912.208 318.742 914.86C316.294 917.41 314.356 920.572 312.928 924.346C311.602 928.018 310.939 932.149 310.939 936.739C310.939 942.859 311.755 947.959 313.387 952.039C315.019 956.017 317.11 959.23 319.66 961.678C322.312 964.126 325.27 965.86 328.534 966.88C331.9 967.9 335.317 968.41 338.785 968.41ZM373.02 973V901.09H378.222L380.058 915.472C381.792 910.882 384.75 907.21 388.932 904.456C393.114 901.6 397.806 900.172 403.008 900.172C405.456 900.172 407.598 900.376 409.434 900.784C411.27 901.192 412.698 901.651 413.718 902.161L412.188 909.199C410.964 908.689 409.587 908.23 408.057 907.822C406.527 907.414 404.742 907.21 402.702 907.21C399.744 907.21 396.939 907.72 394.287 908.74C391.737 909.76 389.442 911.341 387.402 913.483C385.464 915.625 383.883 918.328 382.659 921.592C381.537 924.754 380.976 928.528 380.976 932.914V973H373.02ZM427.279 973V901.09H435.235V973H427.279ZM431.41 882.577C429.778 882.577 428.35 882.067 427.126 881.047C426.004 879.925 425.443 878.395 425.443 876.457C425.443 874.417 426.004 872.836 427.126 871.714C428.248 870.592 429.625 870.031 431.257 870.031C432.787 870.031 434.113 870.592 435.235 871.714C436.459 872.734 437.071 874.315 437.071 876.457C437.071 878.497 436.51 880.027 435.388 881.047C434.266 882.067 432.94 882.577 431.41 882.577ZM484.793 974.224C481.427 974.224 478.265 973.816 475.307 973C472.349 972.082 469.799 970.858 467.657 969.328V1008.19H459.701V900.172H466.28L467.504 909.352C469.85 907.006 472.808 904.915 476.378 903.079C479.948 901.141 484.283 900.172 489.383 900.172C493.769 900.172 497.798 900.937 501.47 902.467C505.244 903.997 508.508 906.241 511.262 909.199C514.016 912.157 516.158 915.829 517.688 920.215C519.218 924.601 519.983 929.599 519.983 935.209C519.983 941.941 518.963 947.755 516.923 952.651C514.985 957.547 512.333 961.627 508.967 964.891C505.703 968.053 501.929 970.399 497.645 971.929C493.463 973.459 489.179 974.224 484.793 974.224ZM487.7 906.598C485.354 906.598 483.11 906.955 480.968 907.669C478.928 908.281 477.041 909.097 475.307 910.117C473.573 911.137 472.043 912.259 470.717 913.483C469.391 914.707 468.371 915.88 467.657 917.002V962.749C469.901 964.483 472.4 965.758 475.154 966.574C478.01 967.39 480.866 967.798 483.722 967.798C487.292 967.798 490.76 967.237 494.126 966.115C497.492 964.993 500.45 963.157 503 960.607C505.652 957.955 507.743 954.589 509.273 950.509C510.905 946.327 511.721 941.227 511.721 935.209C511.721 926.131 509.732 919.093 505.754 914.095C501.878 909.097 495.86 906.598 487.7 906.598ZM574.547 907.21H550.373V954.334C550.373 959.128 551.444 962.392 553.586 964.126C555.728 965.758 558.686 966.574 562.46 966.574C565.418 966.574 568.172 966.319 570.722 965.809C573.272 965.197 575.414 964.585 577.148 963.973L578.372 969.94C576.332 970.756 573.833 971.47 570.875 972.082C567.917 972.694 564.653 973 561.083 973C554.963 973 550.322 971.572 547.16 968.716C543.998 965.758 542.417 961.321 542.417 955.405V907.21H529.412V901.09H542.417V878.14H550.373V901.09H574.547V907.21ZM593.427 973V901.09H601.383V973H593.427ZM597.558 882.577C595.926 882.577 594.498 882.067 593.274 881.047C592.152 879.925 591.591 878.395 591.591 876.457C591.591 874.417 592.152 872.836 593.274 871.714C594.396 870.592 595.773 870.031 597.405 870.031C598.935 870.031 600.261 870.592 601.383 871.714C602.607 872.734 603.219 874.315 603.219 876.457C603.219 878.497 602.658 880.027 601.536 881.047C600.414 882.067 599.088 882.577 597.558 882.577ZM684.143 936.28C684.143 942.298 683.327 947.704 681.695 952.498C680.063 957.19 677.768 961.168 674.81 964.432C671.954 967.594 668.588 970.042 664.712 971.776C660.836 973.408 656.603 974.224 652.013 974.224C647.525 974.224 643.292 973.459 639.314 971.929C635.438 970.297 632.072 967.951 629.216 964.891C626.36 961.831 624.116 958.057 622.484 953.569C620.852 948.979 620.036 943.726 620.036 937.81C620.036 931.792 620.852 926.437 622.484 921.745C624.218 917.053 626.564 913.126 629.522 909.964C632.48 906.7 635.948 904.252 639.926 902.62C643.904 900.988 648.137 900.172 652.625 900.172C657.113 900.172 661.295 900.937 665.171 902.467C669.047 903.997 672.362 906.292 675.116 909.352C677.972 912.412 680.165 916.186 681.695 920.674C683.327 925.162 684.143 930.364 684.143 936.28ZM675.881 937.045C675.881 931.741 675.218 927.202 673.892 923.428C672.566 919.552 670.781 916.39 668.537 913.942C666.395 911.392 663.896 909.556 661.04 908.434C658.184 907.21 655.226 906.598 652.166 906.598C649.106 906.598 646.148 907.21 643.292 908.434C640.436 909.556 637.886 911.392 635.642 913.942C633.398 916.39 631.613 919.552 630.287 923.428C628.961 927.202 628.298 931.741 628.298 937.045C628.298 942.655 628.961 947.398 630.287 951.274C631.715 955.15 633.551 958.312 635.795 960.76C638.039 963.208 640.589 964.993 643.445 966.115C646.403 967.237 649.412 967.798 652.472 967.798C655.532 967.798 658.439 967.288 661.193 966.268C664.049 965.146 666.548 963.361 668.69 960.913C670.934 958.465 672.668 955.303 673.892 951.427C675.218 947.449 675.881 942.655 675.881 937.045ZM710.142 973H702.186V901.09H708L709.224 911.035C712.692 907.771 716.415 905.17 720.393 903.232C724.473 901.192 729.063 900.172 734.163 900.172C741.507 900.172 747.219 902.212 751.299 906.292C755.481 910.372 757.572 916.084 757.572 923.428V973H749.616V925.417C749.616 922.765 749.31 920.317 748.698 918.073C748.188 915.727 747.219 913.738 745.791 912.106C744.465 910.372 742.629 909.046 740.283 908.128C738.039 907.108 735.234 906.598 731.868 906.598C727.992 906.598 724.116 907.618 720.24 909.658C716.466 911.596 713.1 914.248 710.142 917.614V973Z" fill="#777777"/>
<path d="M23 370C23 70 196 0 393 0C590 0 763 70 763 370C763 670 590 740 393 740C196 740 23 670 23 370Z" fill="#FAFA00"/>
<path d="M469.379 493.768V303.387C469.379 288.803 466.417 276.157 460.492 265.447C454.796 254.51 446.137 246.079 434.516 240.154C422.895 234.23 408.539 231.268 391.449 231.268C375.499 231.268 361.485 234.002 349.408 239.471C337.559 244.939 328.217 252.117 321.381 261.004C314.773 269.891 311.469 279.461 311.469 289.715H248.236C248.236 276.499 251.654 263.396 258.49 250.408C265.326 237.42 275.124 225.685 287.885 215.203C300.873 204.493 316.368 196.062 334.369 189.91C352.598 183.53 372.878 180.34 395.209 180.34C422.097 180.34 445.795 184.897 466.303 194.012C487.038 203.126 503.217 216.912 514.838 235.369C526.687 253.598 532.611 276.499 532.611 304.07V476.336C532.611 488.641 533.637 501.743 535.688 515.643C537.966 529.542 541.27 541.505 545.6 551.531L548 557H479.633C476.443 549.708 473.936 540.024 472.113 527.947C470.29 515.643 469.379 504.249 469.379 493.768ZM480.316 332.781L481 377.215H417.084C399.083 377.215 383.018 378.696 368.891 381.658C354.763 384.393 342.914 388.608 333.344 394.305C323.773 400.001 316.482 407.179 311.469 415.838C306.456 424.269 303.949 434.181 303.949 445.574C303.949 457.195 306.57 467.791 311.811 477.361C317.051 486.932 324.913 494.565 335.395 500.262C346.104 505.73 359.206 508.465 374.701 508.465C394.07 508.465 411.16 504.363 425.971 496.16C440.782 487.957 452.517 477.931 461.176 466.082C470.062 454.233 474.848 442.726 475.531 431.561L502.533 461.98C500.938 471.551 496.609 482.146 489.545 493.768C482.481 505.389 473.025 516.554 461.176 527.264C449.555 537.745 435.655 546.518 419.477 553.582C403.526 560.418 385.525 563.836 365.473 563.836C340.408 563.836 318.419 558.937 299.506 549.139C280.821 539.34 266.238 526.238 255.756 509.832C245.502 493.198 240.375 474.627 240.375 454.119C240.375 434.295 244.249 416.863 251.996 401.824C259.743 386.557 270.909 373.911 285.492 363.885C300.076 353.631 317.621 345.883 338.129 340.643C358.637 335.402 381.537 332.781 406.83 332.781H480.316Z" fill="white"/>
</svg>
