<svg height="140" viewBox="0 0 1024 1008" fill="none" xmlns="http://www.w3.org/2000/svg">
<path d="M184.351 910.117C179.251 907.771 173.692 906.598 167.674 906.598C162.166 906.598 158.035 907.771 155.281 910.117C152.527 912.361 151.15 915.268 151.15 918.838C151.15 922.408 152.323 925.162 154.669 927.1C157.015 928.936 161.146 930.721 167.062 932.455L171.652 933.832C177.466 935.566 181.903 938.116 184.963 941.482C188.023 944.848 189.553 948.979 189.553 953.875C189.553 956.731 188.992 959.434 187.87 961.984C186.748 964.432 185.116 966.574 182.974 968.41C180.832 970.246 178.129 971.674 174.865 972.694C171.703 973.714 168.031 974.224 163.849 974.224C159.259 974.224 155.23 973.816 151.762 973C148.294 972.286 145.234 971.317 142.582 970.093L144.724 963.82C147.376 965.146 150.13 966.166 152.986 966.88C155.842 967.492 159.208 967.798 163.084 967.798C168.898 967.798 173.386 966.676 176.548 964.432C179.71 962.188 181.291 958.975 181.291 954.793C181.291 951.529 180.118 948.724 177.772 946.378C175.528 943.93 171.499 941.788 165.685 939.952L160.789 938.422C148.855 934.648 142.888 928.375 142.888 919.603C142.888 916.747 143.449 914.146 144.571 911.8C145.795 909.352 147.427 907.312 149.467 905.68C151.609 903.946 154.108 902.62 156.964 901.702C159.922 900.682 163.186 900.172 166.756 900.172C170.02 900.172 173.386 900.427 176.854 900.937C180.322 901.447 183.484 902.416 186.34 903.844L184.351 910.117ZM256.036 901.09H263.992V973H258.331L257.107 963.973H256.801C254.353 966.625 251.089 969.022 247.009 971.164C242.929 973.204 238.135 974.224 232.627 974.224C225.181 974.224 219.163 972.235 214.573 968.257C210.085 964.177 207.841 957.853 207.841 949.285V901.09H215.797V947.602C215.797 951.58 216.256 954.895 217.174 957.547C218.092 960.097 219.367 962.137 220.999 963.667C222.631 965.197 224.569 966.268 226.813 966.88C229.159 967.492 231.658 967.798 234.31 967.798C238.9 967.798 243.133 966.727 247.009 964.585C250.987 962.443 253.996 959.893 256.036 956.935V901.09ZM348.686 937.045C348.686 942.757 347.819 947.908 346.085 952.498C344.453 957.088 342.209 961.015 339.353 964.279C336.497 967.441 333.131 969.889 329.255 971.623C325.379 973.357 321.299 974.224 317.015 974.224C312.323 974.224 308.294 973.612 304.928 972.388C301.562 971.062 298.349 969.022 295.289 966.268H294.983L294.065 973H287.792V864.37H295.748V910.117C297.89 907.771 300.848 905.527 304.622 903.385C308.498 901.243 312.884 900.172 317.78 900.172C322.064 900.172 326.093 900.937 329.867 902.467C333.641 903.997 336.905 906.292 339.659 909.352C342.515 912.412 344.708 916.288 346.238 920.98C347.87 925.57 348.686 930.925 348.686 937.045ZM340.424 937.198C340.424 927.1 338.231 919.501 333.845 914.401C329.561 909.199 323.951 906.598 317.015 906.598C314.873 906.598 312.731 906.955 310.589 907.669C308.549 908.281 306.611 909.148 304.775 910.27C302.939 911.29 301.256 912.514 299.726 913.942C298.196 915.268 296.87 916.645 295.748 918.073V959.689C297.788 962.035 300.542 963.973 304.01 965.503C307.58 967.033 311.303 967.798 315.179 967.798C318.545 967.798 321.707 967.135 324.665 965.809C327.725 964.483 330.428 962.545 332.774 959.995C335.12 957.343 336.956 954.13 338.282 950.356C339.71 946.48 340.424 942.094 340.424 937.198ZM403.542 910.117C398.442 907.771 392.883 906.598 386.865 906.598C381.357 906.598 377.226 907.771 374.472 910.117C371.718 912.361 370.341 915.268 370.341 918.838C370.341 922.408 371.514 925.162 373.86 927.1C376.206 928.936 380.337 930.721 386.253 932.455L390.843 933.832C396.657 935.566 401.094 938.116 404.154 941.482C407.214 944.848 408.744 948.979 408.744 953.875C408.744 956.731 408.183 959.434 407.061 961.984C405.939 964.432 404.307 966.574 402.165 968.41C400.023 970.246 397.32 971.674 394.056 972.694C390.894 973.714 387.222 974.224 383.04 974.224C378.45 974.224 374.421 973.816 370.953 973C367.485 972.286 364.425 971.317 361.773 970.093L363.915 963.82C366.567 965.146 369.321 966.166 372.177 966.88C375.033 967.492 378.399 967.798 382.275 967.798C388.089 967.798 392.577 966.676 395.739 964.432C398.901 962.188 400.482 958.975 400.482 954.793C400.482 951.529 399.309 948.724 396.963 946.378C394.719 943.93 390.69 941.788 384.876 939.952L379.98 938.422C368.046 934.648 362.079 928.375 362.079 919.603C362.079 916.747 362.64 914.146 363.762 911.8C364.986 909.352 366.618 907.312 368.658 905.68C370.8 903.946 373.299 902.62 376.155 901.702C379.113 900.682 382.377 900.172 385.947 900.172C389.211 900.172 392.577 900.427 396.045 900.937C399.513 901.447 402.675 902.416 405.531 903.844L403.542 910.117ZM457.785 968.41C461.049 968.41 464.007 968.053 466.659 967.339C469.311 966.625 471.81 965.707 474.156 964.585L475.839 970.093C473.085 971.521 470.178 972.541 467.118 973.153C464.16 973.867 460.743 974.224 456.867 974.224C452.073 974.224 447.534 973.459 443.25 971.929C439.068 970.399 435.345 968.104 432.081 965.044C428.919 961.984 426.369 958.159 424.431 953.569C422.595 948.877 421.677 943.42 421.677 937.198C421.677 931.486 422.544 926.335 424.278 921.745C426.012 917.155 428.46 913.279 431.622 910.117C434.784 906.853 438.456 904.405 442.638 902.773C446.922 901.039 451.614 900.172 456.714 900.172C459.876 900.172 462.936 900.427 465.894 900.937C468.852 901.345 472.065 902.365 475.533 903.997L473.697 910.27C470.943 908.842 468.291 907.873 465.741 907.363C463.293 906.853 460.743 906.598 458.091 906.598C453.909 906.598 450.084 907.312 446.616 908.74C443.148 910.168 440.19 912.208 437.742 914.86C435.294 917.41 433.356 920.572 431.928 924.346C430.602 928.018 429.939 932.149 429.939 936.739C429.939 942.859 430.755 947.959 432.387 952.039C434.019 956.017 436.11 959.23 438.66 961.678C441.312 964.126 444.27 965.86 447.534 966.88C450.9 967.9 454.317 968.41 457.785 968.41ZM492.02 973V901.09H497.222L499.058 915.472C500.792 910.882 503.75 907.21 507.932 904.456C512.114 901.6 516.806 900.172 522.008 900.172C524.456 900.172 526.598 900.376 528.434 900.784C530.27 901.192 531.698 901.651 532.718 902.161L531.188 909.199C529.964 908.689 528.587 908.23 527.057 907.822C525.527 907.414 523.742 907.21 521.702 907.21C518.744 907.21 515.939 907.72 513.287 908.74C510.737 909.76 508.442 911.341 506.402 913.483C504.464 915.625 502.883 918.328 501.659 921.592C500.537 924.754 499.976 928.528 499.976 932.914V973H492.02ZM546.279 973V901.09H554.235V973H546.279ZM550.41 882.577C548.778 882.577 547.35 882.067 546.126 881.047C545.004 879.925 544.443 878.395 544.443 876.457C544.443 874.417 545.004 872.836 546.126 871.714C547.248 870.592 548.625 870.031 550.257 870.031C551.787 870.031 553.113 870.592 554.235 871.714C555.459 872.734 556.071 874.315 556.071 876.457C556.071 878.497 555.51 880.027 554.388 881.047C553.266 882.067 551.94 882.577 550.41 882.577ZM603.793 974.224C600.427 974.224 597.265 973.816 594.307 973C591.349 972.082 588.799 970.858 586.657 969.328V1008.19H578.701V900.172H585.28L586.504 909.352C588.85 907.006 591.808 904.915 595.378 903.079C598.948 901.141 603.283 900.172 608.383 900.172C612.769 900.172 616.798 900.937 620.47 902.467C624.244 903.997 627.508 906.241 630.262 909.199C633.016 912.157 635.158 915.829 636.688 920.215C638.218 924.601 638.983 929.599 638.983 935.209C638.983 941.941 637.963 947.755 635.923 952.651C633.985 957.547 631.333 961.627 627.967 964.891C624.703 968.053 620.929 970.399 616.645 971.929C612.463 973.459 608.179 974.224 603.793 974.224ZM606.7 906.598C604.354 906.598 602.11 906.955 599.968 907.669C597.928 908.281 596.041 909.097 594.307 910.117C592.573 911.137 591.043 912.259 589.717 913.483C588.391 914.707 587.371 915.88 586.657 917.002V962.749C588.901 964.483 591.4 965.758 594.154 966.574C597.01 967.39 599.866 967.798 602.722 967.798C606.292 967.798 609.76 967.237 613.126 966.115C616.492 964.993 619.45 963.157 622 960.607C624.652 957.955 626.743 954.589 628.273 950.509C629.905 946.327 630.721 941.227 630.721 935.209C630.721 926.131 628.732 919.093 624.754 914.095C620.878 909.097 614.86 906.598 606.7 906.598ZM693.547 907.21H669.373V954.334C669.373 959.128 670.444 962.392 672.586 964.126C674.728 965.758 677.686 966.574 681.46 966.574C684.418 966.574 687.172 966.319 689.722 965.809C692.272 965.197 694.414 964.585 696.148 963.973L697.372 969.94C695.332 970.756 692.833 971.47 689.875 972.082C686.917 972.694 683.653 973 680.083 973C673.963 973 669.322 971.572 666.16 968.716C662.998 965.758 661.417 961.321 661.417 955.405V907.21H648.412V901.09H661.417V878.14H669.373V901.09H693.547V907.21ZM712.427 973V901.09H720.383V973H712.427ZM716.558 882.577C714.926 882.577 713.498 882.067 712.274 881.047C711.152 879.925 710.591 878.395 710.591 876.457C710.591 874.417 711.152 872.836 712.274 871.714C713.396 870.592 714.773 870.031 716.405 870.031C717.935 870.031 719.261 870.592 720.383 871.714C721.607 872.734 722.219 874.315 722.219 876.457C722.219 878.497 721.658 880.027 720.536 881.047C719.414 882.067 718.088 882.577 716.558 882.577ZM803.143 936.28C803.143 942.298 802.327 947.704 800.695 952.498C799.063 957.19 796.768 961.168 793.81 964.432C790.954 967.594 787.588 970.042 783.712 971.776C779.836 973.408 775.603 974.224 771.013 974.224C766.525 974.224 762.292 973.459 758.314 971.929C754.438 970.297 751.072 967.951 748.216 964.891C745.36 961.831 743.116 958.057 741.484 953.569C739.852 948.979 739.036 943.726 739.036 937.81C739.036 931.792 739.852 926.437 741.484 921.745C743.218 917.053 745.564 913.126 748.522 909.964C751.48 906.7 754.948 904.252 758.926 902.62C762.904 900.988 767.137 900.172 771.625 900.172C776.113 900.172 780.295 900.937 784.171 902.467C788.047 903.997 791.362 906.292 794.116 909.352C796.972 912.412 799.165 916.186 800.695 920.674C802.327 925.162 803.143 930.364 803.143 936.28ZM794.881 937.045C794.881 931.741 794.218 927.202 792.892 923.428C791.566 919.552 789.781 916.39 787.537 913.942C785.395 911.392 782.896 909.556 780.04 908.434C777.184 907.21 774.226 906.598 771.166 906.598C768.106 906.598 765.148 907.21 762.292 908.434C759.436 909.556 756.886 911.392 754.642 913.942C752.398 916.39 750.613 919.552 749.287 923.428C747.961 927.202 747.298 931.741 747.298 937.045C747.298 942.655 747.961 947.398 749.287 951.274C750.715 955.15 752.551 958.312 754.795 960.76C757.039 963.208 759.589 964.993 762.445 966.115C765.403 967.237 768.412 967.798 771.472 967.798C774.532 967.798 777.439 967.288 780.193 966.268C783.049 965.146 785.548 963.361 787.69 960.913C789.934 958.465 791.668 955.303 792.892 951.427C794.218 947.449 794.881 942.655 794.881 937.045ZM829.142 973H821.186V901.09H827L828.224 911.035C831.692 907.771 835.415 905.17 839.393 903.232C843.473 901.192 848.063 900.172 853.163 900.172C860.507 900.172 866.219 902.212 870.299 906.292C874.481 910.372 876.572 916.084 876.572 923.428V973H868.616V925.417C868.616 922.765 868.31 920.317 867.698 918.073C867.188 915.727 866.219 913.738 864.791 912.106C863.465 910.372 861.629 909.046 859.283 908.128C857.039 907.108 854.234 906.598 850.868 906.598C846.992 906.598 843.116 907.618 839.24 909.658C835.466 911.596 832.1 914.248 829.142 917.614V973Z" fill="#777"/>
<rect x="142" width="740" height="740" rx="311" fill="#fafa00"/>
<path d="M446.379 493.768V303.387C446.379 288.803 443.417 276.157 437.492 265.447C431.796 254.51 423.137 246.079 411.516 240.154C399.895 234.23 385.539 231.268 368.449 231.268C352.499 231.268 338.485 234.002 326.408 239.471C314.559 244.939 305.217 252.117 298.381 261.004C291.773 269.891 288.469 279.461 288.469 289.715H225.236C225.236 276.499 228.654 263.396 235.49 250.408C242.326 237.42 252.124 225.685 264.885 215.203C277.873 204.493 293.368 196.062 311.369 189.91C329.598 183.53 349.878 180.34 372.209 180.34C399.097 180.34 422.795 184.897 443.303 194.012C464.038 203.126 480.217 216.912 491.838 235.369C503.687 253.598 509.611 276.499 509.611 304.07V476.336C509.611 488.641 510.637 501.743 512.688 515.643C514.966 529.542 518.27 541.505 522.6 551.531L525 557H456.633C453.443 549.708 450.936 540.024 449.113 527.947C447.29 515.643 446.379 504.249 446.379 493.768ZM457.316 332.781L458 377.215H394.084C376.083 377.215 360.018 378.696 345.891 381.658C331.763 384.393 319.914 388.608 310.344 394.305C300.773 400.001 293.482 407.179 288.469 415.838C283.456 424.269 280.949 434.181 280.949 445.574C280.949 457.195 283.57 467.791 288.811 477.361C294.051 486.932 301.913 494.565 312.395 500.262C323.104 505.73 336.206 508.465 351.701 508.465C371.07 508.465 388.16 504.363 402.971 496.16C417.782 487.957 429.517 477.931 438.176 466.082C447.062 454.233 451.848 442.726 452.531 431.561L479.533 461.98C477.938 471.551 473.609 482.146 466.545 493.768C459.481 505.389 450.025 516.554 438.176 527.264C426.555 537.745 412.655 546.518 396.477 553.582C380.526 560.418 362.525 563.836 342.473 563.836C317.408 563.836 295.419 558.937 276.506 549.139C257.821 539.34 243.238 526.238 232.756 509.832C222.502 493.198 217.375 474.627 217.375 454.119C217.375 434.295 221.249 416.863 228.996 401.824C236.743 386.557 247.909 373.911 262.492 363.885C277.076 353.631 294.621 345.883 315.129 340.643C335.637 335.402 358.537 332.781 383.83 332.781H457.316Z" fill="white"/>
</svg>
